<svg width="162" height="34" viewBox="0 0 162 34" fill="none" xmlns="http://www.w3.org/2000/svg" data-v-1aa9cc10=""><g clip-path="url(#clip0_1772_266)"><path d="M32.8871 13.6482L32.8674 13.556L27.6863 16.2966L26.2751 17.0454L23.026 18.7649L21.4857 19.5774L16.7466 22.0919C16.6694 22.1308 16.5799 22.1375 16.4979 22.1103C16.4158 22.0831 16.3479 22.0243 16.309 21.9469L15.8911 21.0817L15.6854 20.6754C15.6571 20.6178 15.6124 20.5698 15.557 20.5374C15.5017 20.5051 15.438 20.4898 15.3741 20.4936C15.3101 20.4973 15.2487 20.5199 15.1974 20.5585C15.1462 20.5971 15.1074 20.65 15.0859 20.7106L14.7534 21.6768L14.051 23.7103L13.3946 25.6362L13.3815 25.6735L14.0685 25.858L18.7595 27.1295L18.7989 27.1053L17.9631 25.3815H17.9762L17.9587 25.3529C17.9541 25.3452 17.949 25.3379 17.9434 25.331V25.2827L18.1928 25.1531C18.189 25.1456 18.1838 25.1389 18.1775 25.1333C18.185 25.1382 18.191 25.1451 18.195 25.1531L29.6423 19.2173C29.5811 19.6148 29.5001 20.0078 29.4039 20.3921C28.8352 22.6666 27.672 24.7476 26.0344 26.4202C25.8988 26.5563 25.7631 26.6903 25.6231 26.8221C25.5159 26.9209 25.4043 27.0175 25.3015 27.1119C25.1395 27.2547 24.9733 27.393 24.8048 27.527C24.6363 27.6609 24.4613 27.7927 24.2862 27.9201L24.1965 27.9837L24.1068 28.0452L23.9252 28.1682C23.3735 28.5381 22.7941 28.8648 22.1924 29.1454C21.9736 29.2508 21.7373 29.3518 21.501 29.4441C21.3566 29.5034 21.21 29.5583 21.0634 29.611C20.9168 29.6637 20.7658 29.7142 20.6258 29.7625L20.4748 29.8086C20.4245 29.8262 20.3742 29.8394 20.3217 29.8547C17.5221 30.6644 14.5344 30.5223 11.8237 29.4507L11.7865 29.4353C11.4452 29.3013 11.1126 29.1498 10.7888 28.9961C10.6509 28.9258 10.5131 28.8556 10.3753 28.7765C10.2374 28.6974 10.1061 28.625 9.97049 28.5569C9.83484 28.4888 9.70794 28.3944 9.57666 28.3109C9.51103 28.2692 9.44539 28.2275 9.38412 28.1836C9.06031 27.964 8.74962 27.7444 8.44987 27.4984C8.32734 27.4018 8.2092 27.303 8.09323 27.202L7.74754 26.8945L7.50249 26.6617C7.42153 26.5827 7.34058 26.5014 7.264 26.4224C6.97738 26.1281 6.70607 25.8251 6.45008 25.5066C6.28161 25.287 6.11752 25.0828 5.96217 24.8654C5.55813 24.2998 5.19963 23.7028 4.89008 23.0801C4.88221 23.0676 4.87561 23.0543 4.87038 23.0405C4.86226 23.0278 4.85496 23.0146 4.84851 23.001C4.70629 22.7089 4.57064 22.4081 4.4503 22.105C4.09122 21.2085 3.83291 20.2745 3.68014 19.3205C3.55404 18.6077 3.48599 17.8857 3.47666 17.1618C3.47599 16.6547 3.50521 16.148 3.56418 15.6444C3.63077 15.059 3.73602 14.4787 3.87924 13.9073C3.93175 13.7031 3.98864 13.4989 4.0499 13.299C4.22624 12.7083 4.44563 12.1314 4.70629 11.573C4.72598 11.5269 4.74567 11.483 4.76755 11.439C5.47018 9.97865 6.43431 8.66037 7.61189 7.54991C7.86788 7.30615 8.1348 7.07557 8.41049 6.85377L8.58333 6.71542C8.70148 6.62319 8.82182 6.53535 8.94216 6.44751L9.12376 6.31795C9.29223 6.19936 9.46289 6.08517 9.63793 5.97757C9.81296 5.86996 9.98581 5.75797 10.1652 5.65915C10.3446 5.56033 10.524 5.46151 10.7078 5.36927C10.8916 5.27704 11.082 5.18481 11.2723 5.10136C11.3402 5.06842 11.408 5.03987 11.478 5.00913L11.9156 4.83564C12.0622 4.78074 12.2066 4.72804 12.3532 4.67753C13.7288 4.20204 15.1735 3.95937 16.6284 3.95944H16.9041C17.0879 3.95944 17.2695 3.95944 17.4511 3.9814C17.5933 3.9814 17.7333 4.00116 17.8734 4.01434C18.0951 4.0363 18.3139 4.06265 18.5298 4.09339C18.8295 4.13512 19.1249 4.19002 19.4181 4.2537C19.6237 4.29762 19.8272 4.34813 20.0307 4.40084C20.3086 4.4755 20.5799 4.55895 20.849 4.64898C21.0328 4.71267 21.2166 4.77855 21.396 4.85102C21.5754 4.92348 21.7548 4.99595 21.932 5.07062L22.1946 5.1914L22.3893 5.28583C22.5184 5.34951 22.6475 5.41319 22.7744 5.48127L22.9647 5.58448L19.9257 7.15902L14.1385 10.1719L10.9726 11.8058L10.8588 11.5862L10.1521 10.2181C10.123 10.1618 10.0782 10.1152 10.0233 10.084C9.96828 10.0528 9.90546 10.0383 9.84242 10.0423C9.77939 10.0462 9.71885 10.0685 9.66818 10.1063C9.6175 10.1441 9.57887 10.1959 9.55697 10.2554L8.53301 13.0729L8.34485 13.5823L7.98165 14.5727C7.96463 14.6158 7.95686 14.662 7.95885 14.7083C7.96084 14.7546 7.97255 14.8 7.9932 14.8414C8.01385 14.8829 8.04298 14.9195 8.07869 14.9489C8.11441 14.9783 8.15589 14.9997 8.20044 15.0119L8.72555 15.1459L13.1277 16.2571L13.2349 16.1978L12.5785 14.9285C12.5392 14.8518 12.5316 14.7627 12.5574 14.6804C12.5833 14.5982 12.6404 14.5295 12.7164 14.4893L16.2587 12.6161L18.3263 11.5181L25.7106 7.61359L28.5549 6.11372C28.599 6.09031 28.637 6.05695 28.666 6.01626C28.695 5.97557 28.7142 5.92866 28.7221 5.87926C28.7299 5.82985 28.7262 5.77929 28.7113 5.73156C28.6963 5.68383 28.6705 5.64025 28.6359 5.60425C26.8926 3.78128 24.7597 2.3794 22.398 1.5043C22.2821 1.46038 22.1683 1.41866 22.0523 1.37913C20.3072 0.776361 18.4741 0.469843 16.6284 0.472181C16.0858 0.472181 15.5505 0.497801 15.0225 0.549041C14.3434 0.614142 13.6689 0.721218 13.003 0.869658C12.5107 0.979458 12.025 1.11122 11.5502 1.26494C11.2964 1.344 11.047 1.43403 10.7997 1.52407C10.4715 1.64704 10.1433 1.781 9.83047 1.92594C6.55692 3.40492 3.84439 5.90185 2.09388 9.04758C1.93416 9.33306 1.78538 9.62294 1.64316 9.92598C1.16037 10.9264 0.779906 11.9734 0.507615 13.0509C0.168981 14.3947 -0.00153355 15.7757 1.03911e-05 17.1618C1.03911e-05 17.2694 1.03911e-05 17.3814 1.03911e-05 17.4868C0.0203896 18.6704 0.167091 19.8483 0.4376 21.0004C0.51199 21.3145 0.592945 21.6263 0.684838 21.9359C0.684838 21.9513 0.684838 21.9667 0.700154 21.9842C0.875615 22.574 1.08454 23.1533 1.32591 23.7191C1.73802 24.689 2.24057 25.6177 2.82684 26.4926C2.99094 26.732 3.15941 26.9714 3.33444 27.2042C3.67139 27.6434 4.0324 28.0826 4.4131 28.4976L4.49187 28.5832C5.28563 29.434 6.16557 30.1994 7.11741 30.8671C7.3362 31.0252 7.57031 31.1767 7.80224 31.3217C10.4467 32.9858 13.5072 33.863 16.6284 33.8515C17.0945 33.8515 17.5561 33.8339 18.0134 33.7944C20.6559 33.577 23.2075 32.7244 25.4524 31.3085C25.7806 31.1043 26.1088 30.8869 26.4086 30.6497C27.1122 30.1339 27.7749 29.5641 28.3908 28.9456C30.5145 26.8165 32.0224 24.1486 32.7536 21.2266C32.9184 20.5704 33.0419 19.9044 33.1234 19.2327C33.204 18.5967 33.2471 17.9566 33.2525 17.3155V17.1618C33.254 15.981 33.1315 14.8033 32.8871 13.6482ZM17.8602 25.1992V25.2102C17.8592 25.2153 17.8592 25.2205 17.8602 25.2256C17.8597 25.2168 17.8597 25.208 17.8602 25.1992Z" fill="#2A62F5"></path> <path d="M34.5959 7.31713C34.6408 7.32869 34.6827 7.34981 34.7188 7.37905C34.7549 7.40829 34.7844 7.44498 34.8051 7.48662C34.8259 7.52827 34.8375 7.5739 34.8391 7.62044C34.8407 7.66697 34.8324 7.71332 34.8147 7.75633L33.2743 11.8014C33.2518 11.8595 33.213 11.9099 33.1627 11.9465C33.1124 11.9832 33.0527 12.0045 32.9906 12.0079C32.9286 12.0114 32.8668 11.9969 32.8128 11.9661C32.7587 11.9353 32.7146 11.8896 32.6858 11.8343L32.3357 11.1558C32.2953 11.0799 32.2267 11.023 32.1448 10.9975C32.0629 10.972 31.9742 10.98 31.8981 11.0196L31.7253 11.1118L31.2877 11.3314L28.614 12.7435L28.0692 13.0333L18.9805 17.847C18.9129 17.8813 18.8354 17.8907 18.7617 17.8733L18.5429 17.8206C18.496 17.8101 18.4521 17.7893 18.4143 17.7597C18.3764 17.7301 18.3456 17.6924 18.3241 17.6493L17.2848 15.5346C17.265 15.4967 17.2529 15.4552 17.2492 15.4126C17.2454 15.37 17.2501 15.3271 17.2629 15.2863C17.2757 15.2455 17.2964 15.2076 17.3238 15.1748C17.3512 15.1421 17.3848 15.1151 17.4226 15.0954L26.6405 10.2181L27.2028 9.9194L29.8524 8.51835L30.29 8.28557L30.4541 8.19773C30.4917 8.17785 30.5251 8.15071 30.5523 8.11787C30.5795 8.08503 30.6 8.04713 30.6126 8.00635C30.6252 7.96556 30.6296 7.92268 30.6257 7.88016C30.6218 7.83763 30.6096 7.79631 30.5897 7.75853L30.0449 6.70445C30.0202 6.64929 30.0113 6.58831 30.0192 6.52835C30.0271 6.4684 30.0516 6.41185 30.0898 6.36507C30.128 6.31829 30.1784 6.28313 30.2354 6.26356C30.2924 6.24398 30.3538 6.24077 30.4125 6.25427L32.9308 6.8955L34.5959 7.31713Z" fill="#2A62F5"></path></g> <path d="M60.9886 24.3086H58.1329L57.9035 22.2604C57.4445 22.9516 56.7561 23.5332 55.8382 24.0052C54.9373 24.4603 53.8495 24.6879 52.5747 24.6879C50.059 24.6879 47.9258 23.8366 46.175 22.134C44.4242 20.4314 43.5488 18.1725 43.5488 15.3573C43.5488 12.559 44.4497 10.3001 46.2515 8.58062C48.0702 6.86116 50.2545 6.00143 52.8041 6.00143C55.0138 6.00143 56.8156 6.53244 58.2094 7.59446C59.6202 8.65648 60.5721 9.96293 61.065 11.5138L57.6995 12.7023C57.4275 11.7751 56.8751 10.9744 56.0422 10.3001C55.2263 9.60892 54.1469 9.26335 52.8041 9.26335C51.2743 9.26335 49.94 9.78593 48.8011 10.8311C47.6793 11.8763 47.1184 13.385 47.1184 15.3573C47.1184 17.2959 47.6623 18.8047 48.7502 19.8835C49.855 20.9624 51.2148 21.5018 52.8296 21.5018C54.3254 21.5018 55.4728 21.131 56.2717 20.3893C57.0706 19.6307 57.538 18.8384 57.674 18.0124H51.9627V14.978H60.9886V24.3086Z" fill="#2A62F5"></path> <path d="M66.7572 16.6722H72.3665C72.3325 15.981 72.0775 15.3995 71.6016 14.9274C71.1426 14.4554 70.4627 14.2194 69.5618 14.2194C68.7459 14.2194 68.083 14.4723 67.5731 14.978C67.0631 15.4837 66.7912 16.0485 66.7572 16.6722ZM72.6979 19.9088L75.528 20.7433C75.1881 21.8896 74.5167 22.8336 73.5138 23.5753C72.5279 24.317 71.2956 24.6879 69.8168 24.6879C68.015 24.6879 66.4852 24.0895 65.2274 22.8926C63.9695 21.6789 63.3406 20.0605 63.3406 18.0376C63.3406 16.1159 63.9525 14.5482 65.1764 13.3344C66.4002 12.1038 67.845 11.4885 69.5108 11.4885C71.4486 11.4885 72.9614 12.0617 74.0492 13.208C75.1541 14.3543 75.7065 15.9305 75.7065 17.9365C75.7065 18.0714 75.698 18.2231 75.681 18.3917C75.681 18.5602 75.681 18.6951 75.681 18.7962L75.6555 18.9732H66.6807C66.7147 19.7824 67.0376 20.4567 67.6496 20.9961C68.2615 21.5356 68.9924 21.8053 69.8423 21.8053C71.2871 21.8053 72.239 21.1731 72.6979 19.9088Z" fill="#2A62F5"></path> <path d="M82.5584 8.15076V11.8678H85.0825V14.8516H82.5584V20.0605C82.5584 20.5831 82.6773 20.954 82.9153 21.1731C83.1533 21.3923 83.5272 21.5018 84.0372 21.5018C84.4961 21.5018 84.8446 21.4681 85.0825 21.4007V24.1822C84.5896 24.3845 83.9522 24.4856 83.1703 24.4856C81.9464 24.4856 80.9776 24.1485 80.2637 23.4742C79.5497 22.783 79.1928 21.839 79.1928 20.6421V14.8516H76.9236V11.8678H77.561C78.1899 11.8678 78.6659 11.6908 78.9888 11.3368C79.3288 10.9659 79.4988 10.4855 79.4988 9.8955V8.15076H82.5584Z" fill="#2A62F5"></path> <path d="M99.4638 24.3086H88.1433V6.38072H99.4638V9.66793H91.6619V13.7643H98.7244V16.8745H91.6619V21.0214H99.4638V24.3086Z" fill="#2A62F5"></path> <path d="M114.438 29.113H111.123V23.0696C110.477 24.0979 109.313 24.612 107.63 24.612C105.862 24.612 104.401 23.9967 103.245 22.7662C102.089 21.5187 101.511 19.951 101.511 18.0629C101.511 16.2086 102.063 14.6662 103.168 13.4356C104.29 12.1881 105.743 11.5644 107.528 11.5644C108.514 11.5644 109.313 11.7498 109.925 12.1207C110.554 12.4747 110.979 12.8708 111.2 13.3091V11.8678H114.438V29.113ZM105.794 15.509C105.216 16.1328 104.928 16.9841 104.928 18.0629C104.928 19.1418 105.216 20.0015 105.794 20.6421C106.389 21.2827 107.137 21.603 108.038 21.603C108.939 21.603 109.678 21.2827 110.256 20.6421C110.851 20.0015 111.149 19.1418 111.149 18.0629C111.149 16.9841 110.851 16.1328 110.256 15.509C109.678 14.8853 108.939 14.5734 108.038 14.5734C107.137 14.5734 106.389 14.8853 105.794 15.509Z" fill="#2A62F5"></path> <path d="M126.176 24.3086C126.108 23.9715 126.074 23.5247 126.074 22.9684C125.751 23.5247 125.267 23.9462 124.621 24.2328C123.992 24.5025 123.321 24.6373 122.607 24.6373C121.128 24.6373 119.964 24.1738 119.114 23.2466C118.264 22.3026 117.839 21.131 117.839 19.7318V11.8678H121.23V19.0491C121.23 19.7908 121.426 20.3977 121.816 20.8697C122.207 21.3248 122.777 21.5524 123.525 21.5524C124.256 21.5524 124.834 21.3333 125.259 20.895C125.683 20.4398 125.896 19.8414 125.896 19.0997V11.8678H129.287V22.0581C129.287 22.8504 129.329 23.6006 129.414 24.3086H126.176Z" fill="#2A62F5"></path> <path d="M136.297 24.3086H132.906V11.8678H136.297V24.3086ZM132.498 7.79675C132.498 7.2236 132.702 6.73473 133.11 6.33015C133.518 5.90872 134.011 5.698 134.589 5.698C135.167 5.698 135.66 5.90029 136.068 6.30487C136.475 6.70945 136.679 7.20674 136.679 7.79675C136.679 8.35305 136.475 8.83348 136.068 9.23806C135.66 9.64264 135.167 9.84493 134.589 9.84493C134.011 9.84493 133.518 9.64264 133.11 9.23806C132.702 8.83348 132.498 8.35305 132.498 7.79675Z" fill="#2A62F5"></path> <path d="M144.109 8.15076V11.8678H146.633V14.8516H144.109V20.0605C144.109 20.5831 144.228 20.954 144.466 21.1731C144.704 21.3923 145.078 21.5018 145.588 21.5018C146.047 21.5018 146.395 21.4681 146.633 21.4007V24.1822C146.14 24.3845 145.503 24.4856 144.721 24.4856C143.497 24.4856 142.528 24.1485 141.814 23.4742C141.1 22.783 140.743 21.839 140.743 20.6421V14.8516H138.474V11.8678H139.112C139.741 11.8678 140.216 11.6908 140.539 11.3368C140.879 10.9659 141.049 10.4855 141.049 9.8955V8.15076H144.109Z" fill="#2A62F5"></path> <path d="M154.122 29.2141H150.527L153.485 22.7409L148.156 11.8678H151.955L155.295 19.1502L158.38 11.8678H162L154.122 29.2141Z" fill="#2A62F5"></path> <defs><clipPath id="clip0_1772_266"><rect width="34.8387" height="33.3749" fill="white" transform="translate(0 0.472168)"></rect></clipPath></defs></svg>